<?xml version="1.0" encoding="UTF-8"?>
<svg id="Layer_1" data-name="Layer 1" xmlns="http://www.w3.org/2000/svg" viewBox="0 0 1597.94 581.97">
  <defs>
    <style>
      .cls-1 {
        font-size: 60px;
      }

      .cls-2 {
        letter-spacing: .06em;
      }

      .cls-2, .cls-3, .cls-4 {
        font-size: 150px;
      }

      .cls-3 {
        letter-spacing: 0em;
      }

      .cls-5 {
        fill: #427f47;
        font-family: Quicksand-Regular, Quicksand;
        font-variation-settings: 'wght' 400;
      }

      .cls-6 {
        fill: #428047;
        stroke-width: 0px;
      }
    </style>
  </defs>
  <g>
    <text class="cls-5" transform="translate(0 127.5)"><tspan class="cls-2" x="0" y="0">a</tspan><tspan class="cls-1" x="100.5" y="0"> </tspan><tspan class="cls-4" x="116.88" y="0">u</tspan><tspan class="cls-1" x="202.23" y="0"> </tspan><tspan class="cls-4" x="218.61" y="0" xml:space="preserve">t    b</tspan><tspan class="cls-1" x="524.15" y="0"> </tspan><tspan class="cls-4" x="540.53" y="0">r</tspan><tspan class="cls-1" x="598.28" y="0"> </tspan><tspan class="cls-4" x="614.66" y="0">u</tspan><tspan class="cls-1" x="700.01" y="0"> </tspan><tspan class="cls-3" x="716.39" y="0">s</tspan><tspan class="cls-1" x="786.73" y="0"> </tspan><tspan class="cls-4" x="803.11" y="0">h</tspan></text>
    <text/>
    <text/>
    <text/>
    <text/>
    <text/>
    <g id="Layer_1-2" data-name="Layer 1-2">
      <g>
        <path class="cls-6" d="m262.23,151.94l10.92,13.88c-.81.91-1.72,1.96-2.68,2.98-4.17,4.41-8.33,8.83-12.55,13.21-5.58,5.8-11.47,11.28-17.43,16.68-11.76,10.65-23.88,20.86-36.7,30.22-4.53,3.31-9.12,6.54-14.14,9.07-3.61,1.82-7.36,3.14-11.45,2.73-2.81-.28-5.14-1.47-6.94-3.6-.54-.64-1.13-1.25-1.64-1.91-3.01-3.89-3.49-8.1-1.38-12.73,1.46-3.19,3.61-5.88,6-8.42,6.38-6.74,13.41-12.77,20.77-18.38,7.23-5.51,14.58-10.87,21.95-16.19,4.35-3.13,8.8-6.12,13.29-9.02,4.68-3.03,9.42-5.98,14.23-8.8,5.15-3.01,10.4-5.83,15.62-8.72.66-.37,1.37-.64,2.13-.99h0Zm-66.07,74.38l-.13-.21c.51-.4,1.04-.77,1.52-1.2,3.51-3.14,4.12-8.63,1.26-12.15-1.7-2.09-4.13-2.91-6.78-3.22-2.46-.29-4.67.28-6.55,2.05-.79.75-1.65,1.43-2.44,2.19-1.5,1.45-2.72,3.05-2.84,5.22-.04.77-.18,1.55-.11,2.3.29,3.04.92,5.85,4.03,7.39,2.21,1.09,4.44,1.53,6.76.51,1.83-.8,3.53-1.91,5.28-2.87h0Zm14.08-19.54s-.04-.07-.06-.1c.22-.17.46-.33.66-.52,1.5-1.47,1.33-3.8-.34-4.63-1.33-.66-3.39-.3-4.49.78-1.14,1.13-1.39,2.97-.59,4.36.51.89,1.85,1.31,3.17.91.57-.18,1.1-.53,1.64-.8h0Zm4.65-7.91c.96,1.22,2.33,1.59,3.42,1.15.95-.39,1.55-1.28,1.44-2.31-.12-1.13-.64-2.09-1.53-2.79-.79-.62-3.18.08-3.51,1.03-.39,1.13-.29,2.22.18,2.91h0Zm28.12-22.26c.58.73,1.58,1.14,2.71,1.1,1.07-.03,2.07-.96,2.47-2.27.25-.82,0-1.53-1.07-2.01-.78-.35-1.74-.58-2.6-.49-1.78.19-2.59,2.31-1.51,3.66h0Zm-9.31,4.33c-1.17.89-1.35,2.13-.41,3.13.73.78,1.66,1.23,2.77,1.23,1,0,1.55-.67,1.98-1.46.42-.77.57-1.58.02-2.33-.85-1.18-3.16-1.47-4.35-.57h0Zm-5.72,7.63c-.94-1.2-2.74-1.6-3.74-.83-1.02.79-.98,2.7.08,4.02.72.9,2.03.95,3.11.13,1.18-.9,1.4-2.23.55-3.31Z"/>
        <path class="cls-6" d="m339.25,101.8c-.67,2.3-1.71,4.6-3.43,6.52-2.33,2.6-4.64,5.24-7.17,7.65-5.16,4.93-10.1,10-14.07,15.95-.46.69-1.05,1.3-1.64,2.02.35.3.72.6,1.08.91.16.14.32.3.45.46.93,1.11.92,1.36-.21,2.34-2.88,2.52-6.23,4.19-9.85,5.27-7.39,2.21-13.67,6.32-19.34,11.47-2.24,2.03-4.41,4.15-6.58,6.25-.6.58-.96.67-1.59.01-3.41-3.56-6.4-7.45-9.12-11.55-.07-.11-.1-.25-.2-.48,1.01-.68,2.01-1.39,3.04-2.06,5.23-3.39,10.26-7.07,14.83-11.33,2.69-2.5,4.75-5.47,6.6-8.61,1.82-3.08,4.24-5.69,6.87-8.09.67-.61,1.72-.92,2.65-1.1,5.52-1.07,11-2.31,16.39-3.94,5.03-1.52,9.69-3.91,14.14-6.68,2.48-1.55,4.79-3.38,7.12-5.03h0Zm-33.7,24.02c-.38.55-.64,1.17-1.09,1.56-1.96,1.72-3.95,3.42-5.98,5.05-5.86,4.71-11.75,9.39-17.63,14.08-.94.75-1.92,1.47-2.8,2.3-.68.64-1.32,1.37-1.81,2.16-.2.32.04.9.08,1.36.41-.09.88-.09,1.22-.3.99-.64,1.95-1.33,2.88-2.05,8.04-6.26,16.06-12.54,24.1-18.81.82-.64,1.65-1.26,2.5-1.85.76-.52,1.06-.42,1.38.37.09.23.18.46.21.54.46-1.11.94-2.29,1.43-3.49-1.67.37-3.35.44-4.48-.94h0Z"/>
        <path class="cls-6" d="m364.04,99.28c-3.05,2.37-6.57,2.92-10.27,2.34-1.43-.22-2.82-.7-4.2-1.15-2.35-.78-3.88-2.48-4.94-4.6-1.73-3.49-2.3-7.24-1-11.01,1.98-5.76,6.41-8.88,12.84-8.94,3.67-.03,6.84,1.2,9.72,3.26,2.53,1.81,3.34,4.51,3.62,7.45.49,5.2-1.88,9.2-5.78,12.65h0Z"/>
        <path class="cls-6" d="m372.75,76.77c.2-.5.37-1.02.6-1.5,1.72-3.67,4.19-6.84,6.84-9.88,3.17-3.63,6.45-7.15,9.63-10.76,2.42-2.75,4.2-5.91,5.9-9.11.54-1.01,1.26-2,2.11-2.76,1.08-.97,2.54-.71,3.38.27.44.52.3,1.02.07,1.52-1.25,2.77-2.7,5.42-5,7.54.04.06.07.11.11.17,1.02-.55,2.03-1.1,3.05-1.65,1.74-.94,3.56-1.44,5.53-1.22.82.09,1.17.49,1.21,1.32.12,2.41-.84,4.35-2.63,5.96-.16.14-.31.28-.54.49,1.47-.37,2.83-.77,4.2-1.03.92-.17,1.88-.25,2.81-.2,1.45.07,2.26.89,2.41,2.21.12,1.13-.56,2.23-1.87,2.64-1.24.39-2.54.63-3.82.86-4.43.81-8.87,1.54-13.18,2.99-3.83,1.29-7.46,3-10.95,5.04-1.55.91-3.07,1.85-4.6,2.78-1.95,1.19-3.68,2.62-5.26,4.33h0Z"/>
        <path class="cls-6" d="m352.31,106.26c3.33,5.28,3.89,11.1,2.99,17.26-.91,6.2-1.67,12.41-2.57,18.61-.25,1.71-.7,3.41-1.15,5.09-.29,1.06-.94,1.94-1.85,2.63-1.76,1.33-3.57.94-4.53-.98-.77-1.54-.74-3.22-.65-4.9.02-.32.05-.64-.11-1.07-.21.21-.44.41-.64.64-1.62,1.8-3.2,3.65-4.88,5.4-.93.98-1.38.92-2.06-.21-.98-1.62-1.5-3.38-.41-5.2,1.31-2.17,2.75-4.26,4.14-6.38,3.34-5.12,6.39-10.4,8.87-15.98,1.72-3.86,2.27-7.91,2.37-12.03.02-.95.16-1.9.25-2.85.07-.01.15-.02.22-.03h0Z"/>
        <path class="cls-6" d="m401.44,83.35c1.08.08,2.15.21,3.23.22,2.57,0,5.16-.13,7.72-.04,1.64.06,3.29.3,4.88.69,1.39.34,1.91,1.22,1.86,2.43-.04,1.17-.69,1.98-1.99,2.53-1.29.55-2.61.55-3.92.3-2.65-.51-5.29-1.05-7.93-1.59-7.77-1.58-15.6-2.63-23.62-1.6-2.13.27-4.23.93-6.34,1.41l-.53.12c-.06-.07-.11-.14-.17-.21.75-.75,1.49-1.52,2.26-2.24,3.45-3.24,7.66-4.8,12.14-5.92,6.67-1.68,13.3-3.52,19.95-5.27,1.78-.47,3.6-.93,5.42-.6,1.19.21,2.34.7,3.46,1.16.25.1.46.6.45.93-.03,1.74-1.12,2.87-2.62,3.44-2.47.94-5,1.73-7.53,2.47-2.21.64-4.46,1.12-6.69,1.67-.01.04-.02.08-.03.12h0Z"/>
        <path class="cls-6" d="m339.95,91.58c-1.08.69-2.14,1.39-3.23,2.05-5.26,3.18-11.09,4.65-16.92,6.16-5.36,1.39-10.67,3.02-16.01,4.5-2.4.66-4.84,1.19-7.27.31-.58-.21-1.17-.48-1.68-.82-1.21-.82-1.32-2.11-.13-3.08.78-.64,1.73-1.22,2.69-1.45,2.56-.63,5.17-1.06,7.76-1.59,1.68-.34,3.35-.71,5.02-1.07,0-.08-.01-.16-.02-.23-1.43-.04-2.85-.04-4.28-.12-3.42-.2-6.87-.23-10.1-1.45-.41-.15-.81-.34-1.17-.57-.86-.55-1.53-1.27-1.45-2.37.1-1.23.87-2.13,2.03-2.39,1.23-.28,2.56-.48,3.77-.29,3.51.55,6.97,1.31,10.45,2,8.59,1.71,17.24,2.44,26.05.97,1.23-.21,2.45-.52,3.67-.78.23-.05.46-.06.69-.09.04.11.08.21.13.32h0Z"/>
        <path class="cls-6" d="m325.38,42.29c-.14-1.16-.29-2.23-.39-3.31-.06-.6-.07-1.2-.05-1.81.03-.79.11-1.58,1.12-1.79,1.06-.22,2.2-.45,2.86.6.54.86.95,1.83,1.2,2.82.29,1.18.38,2.42.49,3.65.46,5.16,2.26,9.86,4.52,14.41,2.04,4.11,4.69,7.8,7.53,11.38.94,1.19,1.76,2.48,2.62,3.73.12.17.18.38.15.78-.4-.14-.86-.21-1.19-.44-2.08-1.44-4.18-2.84-6.17-4.39-4.49-3.51-8.92-7.1-13.39-10.64-3.11-2.47-6.38-4.71-9.86-6.65-1.26-.71-2.2-1.67-2.39-3.19-.18-1.48.34-2.13,1.82-2.06,1.96.1,3.69.75,5.24,2.34-.12-.76-.23-1.35-.3-1.94-.15-1.19-.33-2.38-.39-3.59-.07-1.39.51-1.93,1.91-1.85.54.03,1.1.16,1.58.38,1.02.46,1.99,1,3.1,1.57h0Z"/>
        <path class="cls-6" d="m395.38,131.99c0,.63.02,1.09-.01,1.55-.07.93-.1,1.87-.26,2.79-.22,1.19-.88,1.76-2.08,1.49-1.53-.35-2.99-1-4.47-1.55-.27-.1-.5-.3-.84-.51.25.97.51,1.83.69,2.7.12.56.14,1.14.17,1.71.06,1.32-.33,2.05-1.18,2.31-1.22.37-2.46,0-3.02-1.03-.35-.63-.64-1.33-.8-2.04-.55-2.42-.98-4.86-1.54-7.27-.9-3.89-2.23-7.61-4.02-11.17-2.11-4.2-4.74-8.02-7.9-11.49-.79-.87-1.46-1.84-2.19-2.77l.21-.19c.64.34,1.31.63,1.91,1.03,5.1,3.45,10.36,6.7,15.14,10.59,2.44,1.98,4.88,3.97,7.43,5.82,1.8,1.3,3.77,2.38,5.68,3.52,1.22.73,2.24,1.61,2.83,2.94.37.84.18,1.6-.35,2.32-.49.67-1.15.46-1.75.31-.85-.22-1.68-.51-2.51-.76-.31-.09-.62-.17-1.13-.31h0Z"/>
        <path class="cls-6" d="m398.59,106.11c2.6,1.47,5.2,2.93,7.79,4.43,1.5.87,3.02,1.73,4.41,2.74.65.47,1.1,1.27,1.5,2,.7,1.28-.01,2.61-1.57,3.03-1.66.45-3.14,0-4.43-.97-1.81-1.38-3.55-2.86-5.37-4.24-2.84-2.16-5.84-4.06-9.02-5.7-3.24-1.67-6.36-3.58-9.64-5.19-2.91-1.43-5.94-2.61-8.95-3.84-.66-.27-1.42-.34-2.13-.5-.01-.07-.02-.15-.03-.22.79-.21,1.57-.46,2.36-.61,2.88-.54,5.74-.34,8.6,0,6.24.73,12.27,2.32,18.37,3.66,3.22.71,6.45,1.38,9.67,2.09,1.76.39,3.58.64,5.04,1.81.87.69,1.28,1.88.98,2.85-.39,1.27-1.2,2.09-2.51,2.09-1.39,0-2.82-.14-4.15-.49-3.42-.91-6.79-1.97-10.18-2.96-.21-.06-.42-.11-.63-.16-.04.07-.08.14-.11.21h0Z"/>
        <path class="cls-6" d="m367.38,33.88c1.29-1.39,2.6-2.87,3.99-4.27.43-.43,1.08-.72,1.67-.93,1.66-.58,3.14.53,3.24,2.4.07,1.24-.29,2.42-.98,3.46-1.48,2.23-3.08,4.39-4.49,6.67-3.7,6.02-6.89,12.26-8.24,19.2-.76,3.88-1.36,7.79-1.38,11.74,0,.24.02.47-.08.71-1.63-3.36-2.68-6.82-2.96-10.56-.39-5,.43-9.93.94-14.89.46-4.49.7-9,.99-13.51.12-1.8.24-3.58,1.16-5.21.2-.36.43-.72.72-1.03.95-1.03,1.76-1.22,2.89-.05,1.57,1.63,2.43,3.64,2.52,5.95,0,.16.01.32.01.31h0Z"/>
        <path class="cls-6" d="m341.4,81.14c-.5.13-.99.32-1.49.39-4.25.61-8.48.64-12.62-.32-4.89-1.13-9.73-2.48-14.62-3.63-3.74-.88-7.53-1.57-11.29-2.36-.62-.13-1.23-.29-1.82-.5-1.8-.65-2.64-2.22-2.23-4.11.23-1.02,1.07-1.44,1.91-1.5,1.22-.09,2.53-.11,3.67.24,3.33,1.01,6.59,2.21,9.87,3.33.8.27,1.6.54,2.46.7-1.04-.66-2.09-1.29-3.11-1.97-3.2-2.15-6.38-4.32-9.56-6.5-.88-.6-1.5-1.41-1.67-2.5-.21-1.37.35-2.09,1.74-2.27,1.96-.25,3.56.56,5.03,1.64,6.04,4.43,12.12,8.81,18.54,12.69,3.49,2.11,6.96,4.26,10.88,5.58.98.33,2.02.46,3.04.68.42.09.85.16,1.27.23,0,.06,0,.12,0,.18h0Z"/>
        <path class="cls-6" d="m362.83,125.39c-.09.35-.23.7-.28,1.05-.54,4.25-.74,8.51-.45,12.76.2,2.95.63,5.91-.03,8.87-.22.97-.67,1.93-1.21,2.79-.61.98-1.59,1.09-2.51.44-1.54-1.11-2.54-2.62-2.89-4.48-.44-2.29-.53-4.62-.08-6.96.87-4.51,1.8-9.01,2.56-13.53.77-4.58,1.25-9.19.62-13.8-.18-1.31-.38-2.62-.58-3.92l.25-.1c.79,1.24,1.65,2.44,2.34,3.74,3.02,5.68,5.27,11.66,6.75,17.96,1.1,4.7,2.34,9.36,3.51,14.04.34,1.37.43,2.76,0,4.15-.43,1.42-1.13,1.62-2.34.83-2.91-1.92-3.66-4.9-3.95-8.12-.46-5.01-.92-10.01-1.38-15.02-.02-.23-.1-.46-.15-.68-.06,0-.12-.01-.18-.02h0Z"/>
        <path class="cls-6" d="m355.69,71.11c-3.54-2.95-5-7-6.27-11.1-1.32-4.28-2.36-8.66-3.55-12.99-1.11-4.01-2.28-8.01-3.38-12.02-.47-1.7-.95-3.42-.37-5.24.43-1.33,1.36-1.72,2.33-.73.88.89,1.68,1.94,2.22,3.06,1.23,2.59,1.83,5.41,2.1,8.28.38,4.06.7,8.12,1.05,12.18.02.19.07.38.07.57.02.8.34,1.23,1.31,1.02.65-1.47.75-3.09.85-4.7.24-4.09-.58-8.06-.98-12.09-.23-2.31-.37-4.63-.43-6.96-.03-1.27.26-2.52,1.48-3.36,1.32-.91,3.04-.59,3.91.7,1.49,2.21,1.56,4.77,1.71,7.31.39,6.71-.67,13.31-2.53,19.78-1.3,4.53-1.22,8.91-.1,13.33.18.71.34,1.43.5,2.15.05.24.05.5.07.81h0Z"/>
        <path class="cls-6" d="m375.3,80.86c.23-.35.47-.69.67-1.06,1.51-2.74,3.96-4.54,6.47-6.23,3.47-2.34,7.09-4.41,11.02-5.85,4.91-1.8,9.86-3.51,15.07-3.89,1.96-.14,3.94.32,5.9.52.16.02.31.1.47.15,2.48.91,2.24,2.46.68,4.27-1.48,1.72-3.63,2.43-5.73,2.99-7.02,1.86-14.04,3.75-21.11,5.4-2.89.68-5.86,1.01-8.67,2.07-1.22.46-2.42,1.01-3.63,1.51-.32.13-.65.21-.98.31-.06-.06-.11-.12-.17-.18h0Z"/>
        <path class="cls-6" d="m338.64,96.76c-.26.46-.42.82-.65,1.14-1.95,2.82-4.59,4.9-7.48,6.65-6.36,3.85-13.15,6.7-20.26,8.75-2.19.63-4.44,1.07-6.68,1.44-2.17.36-4.24-.2-6.22-.96-1.35-.52-1.7-1.39-1.12-2.76.69-1.65,2-2.73,3.65-3.25,3.03-.96,6.08-1.84,9.15-2.64,6.97-1.83,13.96-3.6,20.95-5.39.81-.21,1.63-.38,2.45-.51,1.88-.29,3.58-1.02,5.15-2.11.21-.14.43-.26.65-.38.04-.02.1,0,.41,0h0Z"/>
        <path class="cls-6" d="m341.5,75.58c-.94-.02-1.67,0-2.4-.07-3.38-.27-6.52-1.31-9.5-2.79-6.79-3.36-13.22-7.28-19.05-12.08-2.06-1.7-3.98-3.57-4.93-6.14-.75-2.03-.66-1.99,1.35-2.62,1.69-.53,3.3-.07,4.86.44,2.66.87,4.92,2.47,7.18,4.01,4.92,3.36,9.44,7.22,13.82,11.24,2.68,2.46,5.36,4.91,8.04,7.37.16.14.3.3.63.64h0Z"/>
        <path class="cls-6" d="m340.14,84.92c-1.31,1.35-2.74,2.06-4.27,2.61-5.7,2.05-11.51,2.35-17.4,1.69-6.45-.72-12.77-2.05-19.08-3.43-1.34-.29-2.64-.76-3.65-1.74-.1-.09-.2-.19-.29-.28-1.59-1.72-1.25-3.72.98-4.66,1.17-.5,2.52-.77,3.78-.79,3.6-.05,7.06.71,10.48,1.68,4.3,1.22,8.57,2.52,12.92,3.57,5.09,1.23,10.27,1.98,15.59,1.38.24-.03.49-.02.93-.03Z"/>
        <path class="cls-6" d="m372.33,93.78c.32-.25.62-.53.96-.75,5.04-3.24,10.6-4.32,16.4-4.26,4.19.05,8.31.64,12.4,1.43,4.05.78,8.1,1.58,12.14,2.38,1.27.25,2.36.84,3.22,1.81,1.29,1.46.75,3.57-1.12,4.32-1.86.75-3.79.87-5.73.81-4.03-.13-7.92-.99-11.78-1.99-4.81-1.24-9.6-2.57-14.47-3.55-2.72-.55-5.59-.51-8.4-.61-.91-.03-1.85.32-2.77.51-.23.04-.46.1-.69.15-.05-.09-.11-.17-.16-.25h0Z"/>
        <path class="cls-6" d="m371.43,102.98c5.48.32,10.71,1.71,15.51,4.48,5.41,3.12,10.52,6.64,15.39,10.52,1.89,1.51,3.7,3.1,5.05,5.14,1.24,1.86.78,3.01-1.47,3.43-2.63.49-4.97-.23-7.22-1.43-2.91-1.55-5.32-3.75-7.81-5.84-5.18-4.33-10.37-8.66-15.55-13-1.32-1.11-2.63-2.23-3.9-3.3h0Z"/>
        <path class="cls-6" d="m365.68,73.72c-.72-2.27-1.81-4.48-1.28-7.02.37-1.78.75-3.57,1.24-5.32,1.39-4.97,3.31-9.77,5.6-14.42,2.44-4.97,5.72-9.42,8.96-13.89.96-1.32,2.06-1.68,3.39-1.25,1.2.39,1.88,1.45,1.87,2.93-.01,1.86-.73,3.55-1.49,5.23-2.33,5.17-5.73,9.66-9.22,14.11-2.63,3.34-5.37,6.65-6.73,10.71-.86,2.56-1.34,5.24-1.98,7.87-.08.33-.07.69-.11,1.03-.09,0-.17.02-.26.02h0Z"/>
        <path class="cls-6" d="m343.32,105.62c.54,5.18-1.93,9.22-5.24,12.93-2.47,2.78-5.03,5.49-7.45,8.31-2.42,2.83-4.08,6.11-5.59,9.48-.61,1.37-1.25,2.74-2.05,4.01-.82,1.32-2.17,1.82-3.68,1.69-1.18-.1-1.94-.85-1.96-2.03-.02-1.03.07-2.1.3-3.11,1.43-6.21,4.45-11.61,9.24-15.94,2.57-2.33,5.38-4.41,8.14-6.53,2.61-2,5.21-4,7.1-6.74.44-.64.77-1.35,1.17-2.07h0Z"/>
        <path class="cls-6" d="m362.54,108.01c2.66,2.42,5.37,4.79,7.96,7.29,2.11,2.03,3.67,4.5,4.89,7.15,2.81,6.12,5.04,12.43,5.66,19.25.15,1.66.1,3.31-1.24,4.64-.82.81-1.31.94-2.29.38-2.24-1.27-3.9-3.12-4.59-5.59-.92-3.27-1.65-6.6-2.31-9.94-.93-4.65-1.41-9.41-3.23-13.82-1.34-3.24-2.92-6.36-4.83-9.37h0Z"/>
        <path class="cls-6" d="m348.08,105.15c.2,1.56.43,3.12.6,4.69.47,4.15-.72,8.02-2.4,11.8-1.48,3.34-3.32,6.49-5.36,9.52-2.62,3.88-5.19,7.8-7.84,11.66-.61.88-1.41,1.67-2.22,2.38-1.22,1.06-2.41,1.2-3.43.56-1.07-.67-1.61-2.18-1.16-3.56.35-1.11.77-2.2,1.26-3.26,2.08-4.4,5.09-8.16,8.31-11.8,3.04-3.43,6.12-6.84,8.24-10.95,1.42-2.75,2.31-5.64,3.06-8.6.21-.83.48-1.64.72-2.46.07,0,.15.01.22.02h0Z"/>
        <path class="cls-6" d="m349.88,71.43c-2.45-1.7-4.39-4.16-6.2-6.73-3.77-5.33-7-10.98-9.05-17.23-.77-2.36-1.1-4.88-1.61-7.33-.27-1.31-.45-2.64-.74-3.93-.37-1.63-.17-3.16.82-4.58.61-.87,1.39-1.03,2.32-.58,1.89.91,2.83,2.62,3.7,4.39,2.11,4.26,3.01,8.91,3.85,13.55,1.03,5.68,2.47,11.24,4.29,16.69.68,2.04,1.78,3.94,2.62,5.75Z"/>
        <path class="cls-6" d="m369.74,73.6c.62-5.99,3.31-11.18,6.68-16.06,2.65-3.83,5.56-7.5,8.1-11.39,1.39-2.12,2.23-4.58,3.38-6.86.43-.85.94-1.7,1.58-2.42,1-1.13,2.35-1.17,3.71-.94.62.11.91.53,1.04,1.11.37,1.62.11,3.21-.38,4.8-1.35,4.43-3.86,8.26-6.79,11.8-2.47,2.99-5.09,5.87-7.76,8.7-1.44,1.52-3.05,2.9-4.67,4.24-2.2,1.81-3.83,3.98-4.74,6.66-.04.12-.1.24-.16.35h0Z"/>
        <path class="cls-6" d="m305.55,125.81c1.14,1.37,2.82,1.31,4.48.94-.49,1.21-.98,2.38-1.43,3.49-.03-.08-.11-.31-.21-.54-.32-.79-.62-.9-1.38-.37-.86.59-1.68,1.22-2.5,1.85-8.03,6.27-16.06,12.54-24.1,18.81-.93.72-1.89,1.41-2.88,2.05-.33.21-.81.21-1.22.3-.04-.46-.28-1.04-.08-1.36.49-.79,1.13-1.52,1.81-2.16.88-.82,1.85-1.55,2.8-2.3,5.88-4.69,11.77-9.37,17.63-14.08,2.03-1.63,4.02-3.33,5.98-5.05.45-.4.71-1.01,1.09-1.56h0Z"/>
      </g>
    </g>
  </g>
  <text/>
</svg>