<?xml version="1.0" encoding="UTF-8"?>
<svg id="Layer_2" data-name="Layer 2" xmlns="http://www.w3.org/2000/svg" viewBox="0 0 754.42 1785.81">
  <defs>
    <style>
      .cls-1 {
        fill: #428047;
        stroke-width: 0px;
      }
    </style>
  </defs>
  <g id="Layer_1-2" data-name="Layer 1">
    <g>
      <path class="cls-1" d="m321.13,1048.16h108.37c1.29,7.11,2.95,15.23,4.2,23.42,5.45,35.66,10.99,71.3,16.12,107.01,6.8,47.31,10.91,94.88,14.34,142.55,6.76,93.96,10.08,187.97,6.56,282.13-1.24,33.27-3.05,66.57-9.92,99.27-4.94,23.52-12.8,45.88-30.29,63.45-12.01,12.07-26.57,18.61-43.7,19.18-5.16.17-10.32.68-15.47.64-30.16-.22-52.34-13.43-66.63-40.28-9.86-18.54-14.71-38.42-17.84-58.9-8.33-54.49-10.72-109.4-9.86-164.38.85-53.96,2.84-107.91,5.2-161.83,1.39-31.76,3.88-63.5,6.9-95.15,3.14-32.96,6.86-65.9,11.53-98.68,4.99-35.06,11.34-69.92,17.2-104.86.74-4.42,2.11-8.73,3.31-13.57Zm108.2,581.24l-1.51-.19c0-3.83.22-7.67-.03-11.48-1.85-27.91-26.02-50.88-53.86-50.45-16.51.26-29.72,8.62-41.23,19.83-10.7,10.42-16.38,22.84-14.98,38.08.6,6.45.63,12.96,1.3,19.41,1.28,12.31,4.42,23.9,14.39,32.39,3.54,3.02,6.8,6.51,10.71,8.94,15.75,9.8,31.71,17.18,50.95,8.32,13.64-6.29,24.21-15.08,28.1-29.65,3.06-11.47,4.19-23.45,6.18-35.2Zm-40.85-137.43c-.24-.04-.48-.08-.72-.12,0-1.66.16-3.35-.03-4.99-1.39-12.42-13.28-20.16-23.6-15.4-8.23,3.79-14.31,14.74-13.23,23.81,1.13,9.45,9.06,17.37,18.78,18.75,6.26.89,13.35-3.8,16.41-11.45,1.32-3.32,1.61-7.05,2.38-10.59Zm-20.55-50.73c9.54.02,16.53-5.03,18.5-11.72,1.73-5.88-.29-11.92-5.67-15.2-5.9-3.6-12.51-4.67-19.24-3.08-5.96,1.4-11.67,15.12-8.32,20.17,3.96,5.94,9.63,9.51,14.73,9.84Zm-.72-212.89c5.76-.03,11.51-3.19,15.61-8.59,3.88-5.1,3.22-13.19-1.61-19.84-3.03-4.17-7.37-5.58-13.74-2.39-4.67,2.34-9.42,6-12.21,10.32-5.81,9.01,1.32,20.55,11.94,20.49Zm-14.43,59.33c-.14,8.74,5.14,14.13,13.52,13.41,6.54-.57,12.23-3.26,16.44-8.42,3.78-4.64,2.67-9.7.47-14.56-2.16-4.78-5.48-8.45-11.18-8.67-8.94-.35-19.1,9.36-19.25,18.24Zm15.08,54.7c-9.36-.02-18.14,6.92-18.19,14.37-.04,7.66,9.3,14.5,19.69,14.41,7.1-.06,12.3-5.96,12.41-14.06.11-8.8-5.46-14.7-13.91-14.72Z"/>
      <path class="cls-1" d="m371.38,504.81c8.53,11.56,15.69,24.86,18.45,39.95,3.74,20.41,7.65,40.88,9.71,61.5,4.2,42.13,9.93,83.86,23.57,124.16,1.58,4.67,2.27,9.65,3.5,15.06,2.78-.56,5.63-1.18,8.51-1.7,1.3-.24,2.63-.38,3.96-.42,8.87-.25,10.04.67,10.5,9.56,1.19,22.69-3.43,44.44-11.93,65.29-17.38,42.61-21.35,86.98-18.02,132.33,1.31,17.92,3.27,35.79,5.19,53.66.53,4.9-.41,6.92-5.96,7.45-30.12,2.86-60.21,2.56-90.32.15-.8-.06-1.58-.43-3.07-.85.53-7.22.94-14.49,1.62-21.73,3.48-36.88,4.81-73.8,1.63-110.77-1.87-21.73-8.37-42.27-16.46-62.39-7.96-19.8-11.36-40.67-12.95-61.75-.4-5.34,2.09-11.43,4.72-16.39,15.74-29.68,30.59-59.77,43.19-90.93,11.76-29.07,17.91-59.54,21.44-90.49,1.96-17.25,1.89-34.74,2.72-51.68Zm-11.98,245.39c1.24,3.79,3.2,7.26,3.4,10.83.86,15.46,1.52,30.95,1.69,46.44.5,44.65.72,89.3,1.07,133.94.06,7.16-.16,14.36.49,21.48.5,5.54,1.61,11.19,3.55,16.38.79,2.11,4.49,3.14,6.86,4.65,1.1-2.26,2.93-4.44,3.16-6.78.69-6.95,1-13.96,1.03-20.96.28-60.48.45-120.96.69-181.44.02-6.16.15-12.33.56-18.48.36-5.48,1.98-6.49,7.04-5.08,1.44.4,2.87.86,3.39,1.01-3.62-6.19-7.47-12.76-11.4-19.49-4.54,9.14-10.59,17.22-21.53,17.49Z"/>
      <path class="cls-1" d="m453.33,379.89c-.13,22.95-10.84,41.35-27.66,56.48-6.51,5.86-14.07,10.63-21.48,15.38-12.64,8.1-26.71,9.02-40.95,6.15-23.38-4.72-43.65-15.87-56.9-35.74-20.25-30.38-18.53-62.49,5.6-92.74,13.75-17.24,31.77-27.52,52.6-33.38,18.3-5.15,34.45.95,49.69,10.44,26.95,16.78,37.25,42.55,39.11,73.4Z"/>
      <path class="cls-1" d="m377.78,256.63c-1.67-2.77-3.5-5.45-4.98-8.31-11.18-21.46-17.13-44.65-21.71-68.17-5.48-28.08-10-56.34-15.39-84.43-4.1-21.36-12.58-41.25-21.56-60.97-2.83-6.21-4.86-13.19-5.32-19.95-.59-8.58,6.22-14.48,14.15-14.78,4.19-.16,6.04,2.33,7.62,5.27,8.62,16,15.91,32.49,17.41,50.97.41.04.82.09,1.24.13,1.21-6.76,2.41-13.52,3.63-20.28,2.08-11.57,6.6-21.9,15.09-30.3,3.53-3.49,6.8-3.64,10.97-.78,12.05,8.28,17.78,19.86,18.77,34.12.09,1.25.17,2.49.3,4.3,3.8-8.21,7.01-16.01,10.98-23.4,2.65-4.94,5.94-9.69,9.69-13.85,5.86-6.51,12.85-7.3,19.78-3.14,5.92,3.56,8.62,10.82,5.65,18.41-2.83,7.24-6.6,14.14-10.34,20.98-12.92,23.64-26.23,47.07-35.58,72.48-8.31,22.58-13.86,45.81-17.24,69.59-1.5,10.54-2.72,21.11-4.03,31.67-1.66,13.43-1.34,26.8.9,40.44Z"/>
      <path class="cls-1" d="m442.5,460.24c38.1,3.81,68.31,22.56,94.58,49.37,26.45,27,53.54,53.35,80.05,80.29,7.31,7.43,13.79,15.75,20.16,24.04,4.01,5.22,5.81,11.5,5.67,18.25-.27,13.08-9,20.12-21.89,17.54-10.36-2.07-18.31-8.36-26.11-14.92-1.49-1.25-2.92-2.57-5.56-3.42.21,1.77.34,3.55.65,5.31,2.54,14.19,5.44,28.33,7.57,42.59,1.18,7.95-.79,9.81-8.81,8.85-11.52-1.37-22.03-5.4-26.62-17.18-5.48-14.06-10.1-28.46-15.09-42.72-12.05-34.39-25.96-67.97-43.41-100.02-12.08-22.2-29.55-39.59-49.05-55.22-4.5-3.6-8.57-7.74-12.83-11.62.23-.38.46-.76.69-1.14Z"/>
      <path class="cls-1" d="m518.35,146.92c4.46-4.75,9.19-9.27,13.31-14.3,9.81-11.98,18.92-24.54,29.1-36.18,6.51-7.44,13.95-14.26,21.84-20.21,6.93-5.22,13.14-4.4,18.8.22,5.51,4.49,6.9,10.48,4.65,18.55-2.25,8.06-7.23,14.2-13.43,19.4-12.5,10.49-25.12,20.82-37.74,31.17-37.11,30.44-71.85,63.16-97.35,104.33-6.78,10.95-11.55,23.14-17.24,34.76-.47.97-.94,1.94-1.41,2.91-.55,0-1.1.02-1.64.03-.76-6.26-1.69-12.5-2.26-18.77-2.57-27.98,5.92-53.37,17.46-78.37,17.21-37.27,33.49-74.98,50.26-112.46,4.49-10.05,9.2-20.22,17.66-27.51,5.55-4.78,12.25-8.32,18.73-11.86,1.44-.79,4.64.09,6.17,1.3,8.3,6.54,9.62,15.74,6.65,24.87-4.87,14.97-10.62,29.68-16.68,44.21-5.28,12.65-11.5,24.91-17.3,37.34.14.2.29.39.43.59Z"/>
      <path class="cls-1" d="m324.75,464.04c-.78,7.54-1.4,15.09-2.35,22.61-4.6,36.2-19.62,68.8-34.47,101.58-13.64,30.12-25.89,60.86-39.04,91.2-5.92,13.64-12.62,26.96-26.09,35.03-3.25,1.94-6.74,3.68-10.34,4.8-8.56,2.65-15.15-1.58-15.34-10.68-.13-5.97.71-12.55,3.2-17.88,6.66-14.28,14.5-28.01,21.77-42.01,4.71-9.07,9.26-18.24,13.88-27.36-.39-.26-.79-.52-1.18-.78-5.59,6.51-11.02,13.17-16.82,19.5-13.93,15.21-27.17,31.19-45.31,41.83-2.28,1.34-4.7,2.54-7.2,3.38-5.9,1.99-11.95,2.49-16.93-1.93-5.59-4.97-6.96-11.88-3.85-18.24,3.3-6.75,7.4-13.72,12.9-18.65,15.96-14.34,32.75-27.75,49.28-41.44,40.8-33.8,77.15-71.51,103.47-118,3.68-6.5,6.78-13.34,10.19-20,.63-1.24,1.48-2.37,2.22-3.55.67.19,1.35.39,2.02.58Z"/>
      <path class="cls-1" d="m31.74,351.17c-6.1-3.59-11.85-6.83-17.45-10.31-3.1-1.92-6.07-4.1-8.9-6.41-3.69-3.02-7.2-6.27-4.36-11.79,2.97-5.76,6.17-11.9,13.75-11.11,6.17.64,12.46,2.29,18.14,4.77,6.81,2.98,13.15,7.11,19.47,11.1,26.61,16.8,56.16,25.62,86.62,31.79,27.53,5.57,55.45,6.74,83.48,6.64,9.31-.03,18.62.88,27.92,1.44,1.27.08,2.52.58,4.31,2.18-2.22,1.34-4.27,3.22-6.67,3.94-14.81,4.42-29.57,9.11-44.6,12.7-33.96,8.11-68.08,15.58-102.11,23.42-23.7,5.46-46.92,12.49-69.5,21.61-8.2,3.31-16.38,4.14-24.45-.56-7.84-4.57-9.02-9.4-3.05-16.05,7.89-8.79,17.62-14.5,31.16-15.86-4.13-2.24-7.36-3.88-10.48-5.71-6.31-3.7-12.75-7.22-18.77-11.35-6.97-4.78-7.39-9.44-1.66-15.72,2.19-2.4,4.95-4.52,7.85-5.99,6.05-3.07,12.37-5.62,19.3-8.71Z"/>
      <path class="cls-1" d="m729.99,353.64c3.04,2.33,5.33,3.91,7.41,5.74,4.23,3.73,8.66,7.31,12.44,11.46,4.91,5.4,5.15,10.59-.71,15.14-7.52,5.85-16.17,10.25-24.4,15.16-1.51.9-3.35,1.23-5.65,2.04,5.63,2.39,10.74,4.34,15.66,6.71,3.13,1.51,6.04,3.51,8.9,5.5,6.59,4.59,8.64,9.05,6.66,14-2.82,7.05-9.35,11.45-16.43,10.33-4.38-.69-8.83-1.91-12.84-3.76-13.73-6.32-27.16-13.28-40.92-19.52-22.17-10.04-45.19-17.54-69.11-22.23-28.25-5.54-56.69-7.31-85.41-5.31-7.18.5-14.43.07-21.65.07l-.11-1.67c4.07-1.72,8.02-3.8,12.22-5.1,36.02-11.13,71.6-23.74,108.53-31.77,18.82-4.09,37.68-8.19,56.24-13.32,13.1-3.62,25.76-8.86,38.52-13.61,8.14-3.03,16.28-4.54,24.9-2.4,5.47,1.36,8.42,5.02,9.88,10.14,1.35,4.74-2.12,7.06-5.15,9.3-4.27,3.16-8.81,5.95-13.22,8.92-1.61,1.09-3.15,2.26-5.75,4.14Z"/>
      <path class="cls-1" d="m617.3,243.71c16.96-6.71,33.87-13.53,50.89-20.09,9.88-3.81,19.78-7.75,29.98-10.52,4.75-1.29,10.3-.5,15.33.31,8.86,1.43,12.56,9.64,8.65,18.47-4.16,9.4-11.88,14.69-21.49,17.09-13.55,3.39-27.28,6.08-40.83,9.49-21.16,5.32-41.72,12.36-61.73,21.18-20.38,8.99-41.41,16.54-61.6,25.92-17.91,8.33-35.12,18.18-52.48,27.65-3.84,2.09-7.01,5.39-10.49,8.14-.39-.22-.79-.44-1.18-.66,1.99-4.44,3.71-9.02,6.01-13.28,8.33-15.43,20.17-28.04,32.63-40.15,27.18-26.42,57.76-48.73,87.31-72.28,15.63-12.45,31.16-25.03,46.79-37.47,8.56-6.81,16.69-14.36,27.86-16.89,6.63-1.5,13.9.91,17.46,5.85,4.65,6.46,5.53,13.26.57,19.37-5.28,6.5-11.38,12.66-18.14,17.57-17.34,12.62-35.25,24.47-52.93,36.64-1.08.74-2.11,1.56-3.16,2.34.19.43.39.87.58,1.3Z"/>
      <path class="cls-1" d="m150.47,124.35c-1.83-11.14-4.01-22.66-5.45-34.27-.45-3.62.62-7.66,1.86-11.2,3.46-9.87,14.46-12.74,23.87-6.33,6.24,4.25,10.55,10.22,12.98,17.3,5.17,15.09,9.47,30.49,15.14,45.39,14.97,39.36,33.03,77.12,61.39,108.91,15.86,17.77,32.4,34.94,51.38,49.51,1.14.88,2.38,1.63,3.13,2.97-22.37-4.72-43.05-12.54-62.21-24.93-25.59-16.55-46.28-38.44-68.27-59.03-19.92-18.65-40.79-36.29-61.39-54.2-8.21-7.14-16.34-14.24-20.76-24.52-.98-2.28-1.84-4.68-2.24-7.11-1.35-8.2.77-12.67,10.72-13.64,13.8-1.34,26.75,2.01,38.28,10.06.8.56,1.61,1.13,1.56,1.1Z"/>
      <path class="cls-1" d="m279.89,418.98c-1.24,2.81-2.21,5.79-3.77,8.41-13.16,22.06-29.1,41.91-49.39,57.72-24.01,18.7-48.88,36.29-72.96,54.9-18.42,14.24-36.16,29.36-54.25,44.03-2.97,2.4-6.07,4.69-9.33,6.67-9.96,6.04-20.76,4.18-28.28-4.68-4.06-4.79-2.89-10.31-.02-14.41,4.21-6.03,9.07-12.21,15.06-16.26,17.48-11.83,35.65-22.63,53.54-33.84,4.35-2.73,8.69-5.48,12.69-8.9-7.09,2.43-14.14,5.03-21.29,7.26-22.51,7.01-45.06,13.93-67.62,20.76-6.23,1.89-12.49,1.86-18.41-1.37-7.41-4.05-8.75-9.33-4.34-16.47,6.23-10.1,16.23-14.56,26.96-17.45,44.29-11.89,88.45-24.22,131.57-39.96,23.41-8.55,46.98-16.83,68.19-30.29,5.29-3.35,9.92-7.74,14.82-11.7,2.02-1.63,3.96-3.37,5.94-5.06.3.21.6.42.9.63Z"/>
      <path class="cls-1" d="m574.66,481.33c1.34,1.73,2.5,3.64,4.04,5.16,18.46,18.12,38.24,34.64,59.84,48.92,14.99,9.91,30.9,18.72,42.66,32.69,3.84,4.57,6.77,10.23,8.87,15.86,2.41,6.46-.78,11.45-7.4,13.3-11.2,3.12-22.29,2.21-32.58-2.93-12.7-6.35-24.29-14.46-33.88-25.16-18.46-20.58-36.62-41.44-55.56-61.57-19.19-20.39-39.58-39.55-64.22-53.5-7.01-3.97-14.08-7.81-21.12-11.7l.46-1.56c8.98.9,18.06,1.26,26.94,2.8,38.84,6.76,76.25,18.22,112.25,34.43,26.84,12.08,54.03,23.39,81.02,35.14,7.88,3.43,14.95,8.13,20.06,15.21,5.2,7.21,3.51,11.24-4.88,13.94-20.28,6.53-37.49-.91-54.15-11.35-25.9-16.23-51.8-32.46-77.71-48.66-1.2-.75-2.58-1.21-3.88-1.8-.25.25-.5.5-.75.76Z"/>
      <path class="cls-1" d="m285.72,315.45c-27.68,5.71-52.77-2.36-77.33-11.5-25.67-9.55-50.72-20.78-76.12-31.09-23.56-9.56-47.26-18.75-70.81-28.32-10-4.06-20.09-8.09-26.69-17.53-4.81-6.89-3.14-12.64,5.31-13.56,7.63-.83,15.72-.74,23.18.9,17.18,3.78,33.02,11.3,47.92,20.58,21.02,13.11,41.85,26.52,62.77,39.79.98.62,2.09,1.06,3.02,1.74,3.9,2.84,7.24,2.92,9.89-2.37-4.64-8.41-12.04-14.84-19.45-21.2-18.82-16.14-41.1-26.89-62.01-39.8-12-7.41-23.77-15.25-35.21-23.51-6.27-4.53-11.16-10.48-10.57-19.25.64-9.48,8.71-16.36,18.21-15.7,16.3,1.13,28.93,10.22,41.76,18.86,33.84,22.78,61.63,51.97,85.8,84.38,16.93,22.7,38.34,38.41,63.89,49.38,4.12,1.77,8.21,3.64,12.27,5.56,1.36.65,2.58,1.6,4.18,2.62Z"/>
      <path class="cls-1" d="m407.14,259.75c-.84-2.34-1.54-4.74-2.53-7.02-7.47-17.11-6.85-35.15-5.5-53.08,1.87-24.75,5.63-49.27,13.59-72.91,9.93-29.49,20.45-58.88,38.39-84.59,6.73-9.65,16.48-17.19,24.9-25.65.69-.69,1.65-1.11,2.51-1.62,13.78-8.25,20.33-1.42,23.16,12.5,2.69,13.24-2.05,25.82-7.32,37.67-17.64,39.6-35.15,79.28-54.02,118.31-7.72,15.98-17.37,31.05-22.93,48.06-2.42,7.41-4.3,15-6.5,22.49-.58,1.96-1.46,3.83-2.21,5.74-.51.04-1.02.08-1.53.11Z"/>
      <path class="cls-1" d="m344.79,489.2c1.22,2.87,2.33,4.98,3.05,7.23,6.24,19.45,6.26,39.39,3.72,59.33-5.58,43.81-17.56,85.97-34.61,126.64-5.25,12.53-11.67,24.63-18.38,36.46-6.5,11.44-17.03,19.04-28.23,25.49-7.65,4.4-13.14,2.83-17.57-4.88-5.32-9.26-5.58-19.35-1.87-28.95,6.84-17.66,14.22-35.13,21.98-52.41,17.62-39.26,35.59-78.37,53.48-117.51,2.07-4.53,4.35-8.98,6.85-13.28,5.74-9.85,8.66-20.47,9.38-31.77.1-1.49.37-2.97.61-4.44.04-.26.38-.48,1.59-1.9Z"/>
      <path class="cls-1" d="m253.47,398.09c-3.69,4.32-6.39,7.78-9.41,10.95-14.11,14.8-31.08,25.61-49.48,34.1-41.95,19.35-85.24,34.97-130.54,44.54-16.04,3.39-32.32,5.49-48.35.46-12.6-3.95-12.12-4.22-7.51-15.89,3.88-9.84,12.14-15.65,20.55-21.08,14.3-9.23,30.59-13.89,46.6-18.77,34.88-10.64,70.63-17.58,106.63-23.26,22.02-3.47,44.03-6.98,66.05-10.46,1.28-.2,2.58-.28,5.46-.58Z"/>
      <path class="cls-1" d="m293.36,438.74c1.54,11.03-.45,20.34-3.61,29.5-11.75,34.11-32.34,62.32-57.85,87.37-27.96,27.45-58.33,52.09-88.93,76.45-6.52,5.19-13.66,9.55-22.24,10.66-.82.11-1.65.24-2.47.31-14.33,1.14-22.69-7.85-18.79-21.68,2.06-7.29,5.86-14.59,10.57-20.54,13.41-16.97,30.23-30.35,47.87-42.75,22.18-15.59,44.68-30.77,66.24-47.19,25.24-19.21,48.49-40.65,65.83-67.68.79-1.23,1.77-2.35,3.38-4.45Z"/>
      <path class="cls-1" d="m458.2,321.01c0-2.4-.21-4.83.03-7.21,3.52-35.41,19.35-65.31,41.7-92.16,16.13-19.39,34.61-36.44,53.92-52.6,19.15-16.02,38.35-31.99,57.57-47.92,6.04-5.01,12.98-7.94,20.91-8.38,11.92-.66,20.07,9.58,16.61,21.07-3.43,11.4-10.18,20.88-17.85,29.72-15.92,18.35-34.82,33.29-54.28,47.65-24.22,17.87-48.82,35.33-72.01,54.48-12.96,10.7-23.66,24.23-34.81,36.97-3.61,4.12-5.44,9.8-8.06,14.77-.66,1.24-1.25,2.51-1.88,3.77-.62-.06-1.23-.11-1.85-.17Z"/>
      <path class="cls-1" d="m499.17,358.97c22.33-24.38,48.88-43.68,80.45-55.95,35.55-13.81,71.95-24.75,109.12-33.21,14.48-3.29,28.99-5.9,43.98-4.72,13.69,1.07,17.46,7.41,10.97,19.45-7.58,14.06-19.96,22.37-34.27,28.44-18.54,7.88-38.27,11.05-57.81,15.04-40.57,8.28-81.14,16.6-121.71,24.87-10.36,2.11-20.75,4.11-30.74,6.08Z"/>
      <path class="cls-1" d="m336.21,278.44c-13.71-4.97-28.45-8-38.71-19.78-7.2-8.25-14.37-16.56-20.96-25.3-18.69-24.75-34.57-51.26-48.35-79.04-14.69-29.62-23.78-61.25-33.03-92.8-2.73-9.32-.26-15.79,6.85-20.39,6.44-4.17,14.12-3.47,21.22,2,8.95,6.9,14.38,16.45,19.61,26.14,16.09,29.83,24.88,62.19,33.08,94.79,6.16,24.51,11.7,49.45,26.14,70.69,9.11,13.41,20.2,25.48,30.47,38.1,1.31,1.6,3.03,2.86,4.57,4.28-.3.43-.59.87-.89,1.3Z"/>
      <path class="cls-1" d="m405.27,499.81c27.01,16.48,37.12,42.84,42.53,71.89,4.04,21.73,7.38,43.6,11.83,65.24,4.46,21.68,14,41.48,24.53,60.84,4.28,7.87,8.45,15.9,11.59,24.27,3.26,8.69.56,16.79-5.81,23.38-4.95,5.12-11.45,5.95-17.22,1.69-5.05-3.72-9.88-8.02-13.88-12.83-24.51-29.48-39.1-63.36-41.83-101.63-1.47-20.55-.84-41.28-.61-61.92.22-19.52.46-38.98-5.56-57.84-1.4-4.39-3.59-8.53-5.55-13.09Z"/>
      <path class="cls-1" d="m489.72,418.92c21.78-3.51,43.49-7.45,65.35-10.38,17.79-2.38,35.61-.63,53.05,3.42,40.17,9.33,79.1,22.08,114.32,44.22,8.57,5.39,16.33,11.69,17.68,22.81.82,6.8-.44,9.54-6.85,12.08-14.62,5.79-29.86,6.75-44.37.94-19.25-7.7-38.08-16.54-56.71-25.66-25.95-12.69-50.76-27.96-78.92-35.62-20.7-5.63-41.74-9.73-63.55-11.83Z"/>
      <path class="cls-1" d="m421.04,475.9c8.31,4.79,16.69,9.48,24.93,14.41,21.78,13.02,35.93,32.8,47.84,54.5,10.5,19.15,18.71,39.28,25.6,59.98,8.81,26.47,17.96,52.83,26.53,79.38,1.96,6.07,2.71,12.69,3.04,19.1.49,9.61-3.35,15.63-10.31,18.04-7.31,2.53-16.6-.5-21.59-7.66-3.99-5.71-7.73-11.66-10.92-17.85-13.35-25.83-20.08-53.68-25.42-82.07-5.03-26.76-9.81-53.65-21.59-78.64-7.87-16.69-18.46-31.5-29.86-45.85-3.2-4.02-6.12-8.26-9.17-12.39.31-.32.62-.63.93-.95Z"/>
      <path class="cls-1" d="m265.2,343.77c-17.51,5.22-36.74,5.21-56,4.26-40.03-1.98-79.53-7.62-117.44-21.02-14.31-5.06-27.71-12.74-41.46-19.36-7.33-3.53-14.41-7.59-21.79-10.98-9.29-4.27-15.89-10.83-18.96-20.63-1.88-6.02.3-10.28,6-12.97,11.59-5.47,23.37-3.58,35.22-1.17,28.56,5.8,54.4,18.62,79.98,31.75,31.3,16.06,63.6,29.72,96.76,41.24,12.43,4.32,25.74,6.14,37.69,8.88Z"/>
      <path class="cls-1" d="m351.07,259.05c-26.52-24.89-41.35-56.46-52.14-90.14-8.46-26.41-15.08-53.44-24.21-79.6-4.98-14.26-13.65-27.21-20.28-40.93-2.48-5.14-4.64-10.65-5.67-16.22-1.64-8.8,3.27-15.27,9.56-20.74,2.87-2.5,6.04-2.3,9.33-.78,9.22,4.25,15.89,11.29,21.72,19.38,16.26,22.57,25.2,48.29,31.19,75,5.05,22.52,9.01,45.32,12.56,68.13,1.91,12.29,2.44,24.87,2.72,37.33.38,16.94,4.67,32.47,14.13,46.54.43.64.74,1.35,1.11,2.03Z"/>
      <path class="cls-1" d="m359.4,750.19c10.93-.27,16.98-8.35,21.53-17.49,3.94,6.73,7.78,13.29,11.4,19.49-.51-.15-1.94-.61-3.39-1.01-5.06-1.41-6.68-.4-7.04,5.08-.41,6.15-.53,12.32-.56,18.48-.25,60.48-.42,120.96-.69,181.44-.03,6.99-.34,14-1.03,20.96-.23,2.34-2.06,4.52-3.16,6.78-2.37-1.52-6.07-2.54-6.86-4.65-1.94-5.19-3.05-10.83-3.55-16.38-.65-7.12-.43-14.31-.49-21.48-.35-44.65-.57-89.3-1.07-133.94-.17-15.49-.83-30.97-1.69-46.44-.2-3.57-2.16-7.04-3.4-10.83Z"/>
    </g>
  </g>
</svg>